HIERARCHY
ROOT joint_0
{
	OFFSET 0.000000 0.000000 0.000000
	CHANNELS 6 Xposition Yposition Zposition Zrotation Yrotation Xrotation 
	JOINT joint_1
	{
		OFFSET 14.113007 -2.961990 123.953979
		CHANNELS 3 Zrotation Yrotation Xrotation
		JOINT joint_2
		{
			OFFSET 0.764000 -2.434006 113.871948
			CHANNELS 3 Zrotation Yrotation Xrotation
			JOINT joint_3
			{
				OFFSET 0.186996 -2.169998 113.753052
				CHANNELS 3 Zrotation Yrotation Xrotation
				JOINT joint_4
				{
					OFFSET 16.096001 -2.720001 160.853027
					CHANNELS 3 Zrotation Yrotation Xrotation
					JOINT joint_5
					{
						OFFSET 34.392006 -0.188995 92.567017
						CHANNELS 3 Zrotation Yrotation Xrotation
						End Site
						{
							OFFSET 0.000000 0.000000 0.000000
						}
					}
				}
				JOINT joint_6
				{
					OFFSET 9.183998 -36.684006 89.597046
					CHANNELS 3 Zrotation Yrotation Xrotation
					JOINT joint_7
					{
						OFFSET 0.486000 -164.365997 -28.984009
						CHANNELS 3 Zrotation Yrotation Xrotation
						JOINT joint_8
						{
							OFFSET 38.899002 -34.967010 -291.651978
							CHANNELS 3 Zrotation Yrotation Xrotation
							JOINT joint_9
							{
								OFFSET 41.714005 -45.890991 -258.857056
								CHANNELS 3 Zrotation Yrotation Xrotation
								End Site
								{
									OFFSET 0.000000 0.000000 0.000000
								}
							}
						}
					}
				}
				JOINT joint_10
				{
					OFFSET 8.867004 33.650002 90.817993
					CHANNELS 3 Zrotation Yrotation Xrotation
					JOINT joint_11
					{
						OFFSET 0.018997 164.299999 -29.368042
						CHANNELS 3 Zrotation Yrotation Xrotation
						JOINT joint_12
						{
							OFFSET 29.440994 30.887997 -293.216919
							CHANNELS 3 Zrotation Yrotation Xrotation
							JOINT joint_13
							{
								OFFSET 46.174011 54.490005 -256.422058
								CHANNELS 3 Zrotation Yrotation Xrotation
								End Site
								{
									OFFSET 0.000000 0.000000 0.000000
								}
							}
						}
					}
				}
			}
		}
	}
	JOINT joint_14
	{
		OFFSET -2.264000 -89.466995 -116.150024
		CHANNELS 3 Zrotation Yrotation Xrotation
		JOINT joint_15
		{
			OFFSET -16.400993 -17.452988 -493.781982
			CHANNELS 3 Zrotation Yrotation Xrotation
			JOINT joint_16
			{
				OFFSET -50.497004 -13.404022 -424.754013
				CHANNELS 3 Zrotation Yrotation Xrotation
				JOINT joint_17
				{
					OFFSET 198.546007 -19.341003 -89.309000
					CHANNELS 3 Zrotation Yrotation Xrotation
					End Site
					{
						OFFSET 0.000000 0.000000 0.000000
					}
				}
			}
		}
	}
	JOINT joint_18
	{
		OFFSET -0.867996 96.016006 -110.817993
		CHANNELS 3 Zrotation Yrotation Xrotation
		JOINT joint_19
		{
			OFFSET -10.130997 24.658998 -493.645020
			CHANNELS 3 Zrotation Yrotation Xrotation
			JOINT joint_20
			{
				OFFSET -48.871004 19.434999 -424.714005
				CHANNELS 3 Zrotation Yrotation Xrotation
				JOINT joint_21
				{
					OFFSET 195.579996 24.926001 -94.327003
					CHANNELS 3 Zrotation Yrotation Xrotation
					End Site
					{
						OFFSET 0.000000 0.000000 0.000000
					}
				}
			}
		}
	}
}
MOTION
Frames: 15
Frame Time: 0.016667
-3066.396484 998.838379 1144.115967 4.014450 -2.961453 -1.657426 -1.180950 -0.238123 4.157434 -1.143643 -0.000810 -0.978748 -1.147027 -0.055430 0.608517 -0.227927 -0.063776 0.608318 0.000000 0.000000 0.000000 0.633136 2.619515 -1.761698 -0.508107 2.823758 -1.423358 -0.033266 -1.516504 -1.864491 0.000000 0.000000 0.000000 -1.289365 -0.265621 -0.217075 0.071052 -0.022716 0.429295 0.062918 0.158190 0.161221 0.000000 0.000000 0.000000 0.738589 2.062314 3.265133 0.916303 -0.543095 0.801862 1.068806 -2.917472 0.194613 0.000000 0.000000 0.000000 -2.597650 1.096114 2.164984 -2.525530 1.293877 -1.137130 -2.773212 -3.425596 -0.898401 0.000000 0.000000 0.000000 
-3066.153076 998.840881 1144.074951 4.071763 -3.027488 -1.646905 -1.205557 -0.179691 4.156594 -1.170014 -0.007619 -0.983639 -1.173077 -0.043729 0.609054 -0.226894 -0.068470 0.605504 0.000000 0.000000 0.000000 0.640255 2.622599 -1.763990 -0.507388 2.828015 -1.413555 -0.032804 -1.518554 -1.863958 0.000000 0.000000 0.000000 -1.275805 -0.265758 -0.224909 0.071407 -0.025218 0.424067 0.065167 0.168800 0.161119 0.000000 0.000000 0.000000 0.721344 2.155904 3.259913 0.902600 -0.544759 0.792560 1.054738 -2.920354 0.188038 0.000000 0.000000 0.000000 -2.611679 1.166375 2.149115 -2.542827 1.308493 -1.136827 -2.789491 -3.413723 -0.907767 0.000000 0.000000 0.000000 
-3065.870605 998.851257 1144.030029 4.126622 -3.104046 -1.636623 -1.229976 -0.108709 4.155108 -1.196649 -0.017324 -0.987461 -1.199284 -0.028960 0.609507 -0.225976 -0.077284 0.602969 0.000000 0.000000 0.000000 0.648933 2.624819 -1.768455 -0.506454 2.831655 -1.402876 -0.032146 -1.520784 -1.862416 0.000000 0.000000 0.000000 -1.260063 -0.267273 -0.232773 0.071767 -0.029487 0.418841 0.067803 0.180673 0.161664 0.000000 0.000000 0.000000 0.704672 2.264214 3.255163 0.890111 -0.548075 0.782465 1.041797 -2.926061 0.181693 0.000000 0.000000 0.000000 -2.624053 1.250207 2.132611 -2.559140 1.324194 -1.136747 -2.804910 -3.401970 -0.916705 0.000000 0.000000 0.000000 
-3065.510742 998.864929 1143.974976 4.155386 -3.181385 -1.631483 -1.246104 -0.040626 4.159215 -1.214929 -0.024992 -0.990549 -1.217200 -0.015864 0.609839 -0.224583 -0.085076 0.599169 0.000000 0.000000 0.000000 0.654094 2.628678 -1.775240 -0.505845 2.836382 -1.391821 -0.032012 -1.517790 -1.858457 0.000000 0.000000 0.000000 -1.242871 -0.265676 -0.238189 0.072014 -0.030922 0.413084 0.069674 0.191429 0.159296 0.000000 0.000000 0.000000 0.696565 2.375516 3.257551 0.886666 -0.552119 0.769631 1.037092 -2.931401 0.179072 0.000000 0.000000 0.000000 -2.627011 1.344010 2.121267 -2.566638 1.337501 -1.134990 -2.811916 -3.394393 -0.921066 0.000000 0.000000 0.000000 
-3065.101807 998.874756 1143.911011 4.139526 -3.256106 -1.636877 -1.247873 0.025908 4.174564 -1.218885 -0.034896 -0.993070 -1.220718 -0.001130 0.611081 -0.222029 -0.092280 0.592278 0.000000 0.000000 0.000000 0.661480 2.632961 -1.786138 -0.505342 2.841970 -1.378782 -0.032474 -1.509075 -1.851928 0.000000 0.000000 0.000000 -1.226416 -0.261585 -0.235446 0.071273 -0.029897 0.401751 0.070085 0.199714 0.151766 0.000000 0.000000 0.000000 0.702684 2.480842 3.273350 0.897739 -0.554478 0.753994 1.045724 -2.932320 0.182854 0.000000 0.000000 0.000000 -2.615419 1.444687 2.121570 -2.559894 1.348901 -1.130964 -2.805305 -3.390631 -0.918387 0.000000 0.000000 0.000000 
-3064.616455 998.886780 1143.837036 4.097405 -3.331970 -1.647296 -1.241860 0.090863 4.194558 -1.215074 -0.043846 -0.993370 -1.216503 0.012623 0.611570 -0.218556 -0.099370 0.582931 0.000000 0.000000 0.000000 0.667883 2.638439 -1.798840 -0.505225 2.848653 -1.365614 -0.033592 -1.494986 -1.843626 0.000000 0.000000 0.000000 -1.206205 -0.254510 -0.230505 0.070436 -0.026574 0.390441 0.069756 0.207257 0.141012 0.000000 0.000000 0.000000 0.717162 2.589610 3.296311 0.917678 -0.557854 0.735550 1.062426 -2.933313 0.190242 0.000000 0.000000 0.000000 -2.594489 1.555717 2.127191 -2.544414 1.358016 -1.125592 -2.790400 -3.390994 -0.911192 0.000000 0.000000 0.000000 
-3063.937500 998.916199 1143.744995 4.058548 -3.409881 -1.651572 -1.237341 0.143770 4.209147 -1.212533 -0.051781 -0.993743 -1.213582 0.025854 0.611180 -0.214938 -0.108794 0.573169 0.000000 0.000000 0.000000 0.655591 2.648882 -1.807543 -0.506592 2.857230 -1.359099 -0.035525 -1.473309 -1.832222 0.000000 0.000000 0.000000 -1.176033 -0.240449 -0.239860 0.071847 -0.017660 0.395268 0.069496 0.215139 0.130255 0.000000 0.000000 0.000000 0.730834 2.716223 3.314544 0.937642 -0.567629 0.713513 1.078899 -2.943159 0.196671 0.000000 0.000000 0.000000 -2.572452 1.683859 2.124354 -2.529338 1.359253 -1.118005 -2.775660 -3.398201 -0.903219 0.000000 0.000000 0.000000 
-3063.170410 998.951599 1143.625977 4.026312 -3.500394 -1.647252 -1.233836 0.191767 4.211333 -1.210971 -0.054428 -0.990785 -1.211772 0.036755 0.608885 -0.210044 -0.114860 0.560009 0.000000 0.000000 0.000000 0.638964 2.661187 -1.805977 -0.510215 2.867244 -1.362914 -0.039485 -1.442616 -1.823484 0.000000 0.000000 0.000000 -1.154004 -0.226364 -0.262919 0.076210 -0.006758 0.418246 0.071140 0.227559 0.124673 0.000000 0.000000 0.000000 0.742898 2.860622 3.324875 0.956177 -0.570847 0.690109 1.094606 -2.966712 0.201424 0.000000 0.000000 0.000000 -2.550813 1.831083 2.111590 -2.515961 1.358370 -1.110854 -2.762728 -3.409727 -0.895570 0.000000 0.000000 0.000000 
-3062.209717 999.004395 1143.488037 3.997451 -3.593318 -1.636979 -1.232218 0.227835 4.207979 -1.211055 -0.054191 -0.986701 -1.211710 0.044543 0.604487 -0.204666 -0.122238 0.545530 0.000000 0.000000 0.000000 0.604436 2.678726 -1.800316 -0.515364 2.879565 -1.372933 -0.044434 -1.403964 -1.812311 0.000000 0.000000 0.000000 -1.120334 -0.204893 -0.299582 0.082863 0.009839 0.457054 0.072961 0.240822 0.119078 0.000000 0.000000 0.000000 0.754169 3.023493 3.330817 0.974841 -0.580907 0.662711 1.110112 -2.998810 0.205260 0.000000 0.000000 0.000000 -2.528102 1.995830 2.090577 -2.503037 1.349661 -1.101359 -2.750026 -3.428548 -0.887112 0.000000 0.000000 0.000000 
-3060.624268 999.124207 1143.349976 3.993491 -3.656672 -1.616110 -1.243529 0.213361 4.204223 -1.222627 -0.049101 -0.987957 -1.223423 0.041821 0.603224 -0.200057 -0.145738 0.532966 0.000000 0.000000 0.000000 0.486770 2.716710 -1.805992 -0.521206 2.897758 -1.385991 -0.047275 -1.359291 -1.782220 0.000000 0.000000 0.000000 -1.015844 -0.150240 -0.373078 0.092477 0.047433 0.522908 0.070598 0.244889 0.101262 0.000000 0.000000 0.000000 0.757335 3.218264 3.327975 0.988512 -0.641930 0.624991 1.118390 -3.036268 0.205349 0.000000 0.000000 0.000000 -2.509116 2.176536 2.051963 -2.496698 1.311052 -1.081418 -2.742002 -3.464004 -0.878832 0.000000 0.000000 0.000000 
-3058.469971 999.348145 1143.222046 4.031130 -3.693237 -1.582432 -1.275405 0.148391 4.205898 -1.253217 -0.039854 -0.999613 -1.254453 0.027566 0.609190 -0.197783 -0.182494 0.526478 0.000000 0.000000 0.000000 0.229109 2.763254 -1.815321 -0.526105 2.899494 -1.414307 -0.047273 -1.317736 -1.739085 0.000000 0.000000 0.000000 -0.828791 -0.069772 -0.524671 0.107622 0.096909 0.641579 0.066049 0.239969 0.082034 0.000000 0.000000 0.000000 0.746158 3.453799 3.313073 0.991800 -0.768893 0.574992 1.113358 -3.070907 0.199760 0.000000 0.000000 0.000000 -2.497662 2.371604 1.988675 -2.500842 1.243730 -1.046292 -2.742311 -3.523496 -0.871535 0.000000 0.000000 0.000000 
-3055.692627 999.638794 1143.093018 4.093213 -3.700764 -1.537709 -1.320221 0.034991 4.205736 -1.295307 -0.027238 -1.014722 -1.297232 0.002658 0.616488 -0.196403 -0.237064 0.522193 0.000000 0.000000 0.000000 -0.111122 2.829867 -1.837230 -0.531705 2.906801 -1.446260 -0.045162 -1.269962 -1.676554 0.000000 0.000000 0.000000 -0.569528 0.044056 -0.710803 0.125823 0.167212 0.787893 0.057217 0.225888 0.049932 0.000000 0.000000 0.000000 0.726794 3.721716 3.289210 0.990151 -0.947350 0.514661 1.101134 -3.108047 0.190709 0.000000 0.000000 0.000000 -2.489981 2.583269 1.907657 -2.511648 1.146197 -1.000696 -2.747285 -3.597769 -0.864624 0.000000 0.000000 0.000000 
-3051.691650 999.933105 1142.946045 4.149117 -3.638334 -1.483719 -1.367318 -0.166528 4.188227 -1.337071 -0.002763 -1.021176 -1.340272 -0.044484 0.618415 -0.190712 -0.331182 0.506081 0.000000 0.000000 0.000000 -0.424251 2.968219 -1.914539 -0.542478 2.991776 -1.443994 -0.040357 -1.189743 -1.560946 0.000000 0.000000 0.000000 -0.203372 0.240527 -0.830753 0.140808 0.300471 0.901857 0.033372 0.195108 -0.045637 0.000000 0.000000 0.000000 0.711007 4.008264 3.263045 0.995260 -1.177683 0.441828 1.093242 -3.161509 0.182009 0.000000 0.000000 0.000000 -2.479024 2.814726 1.820160 -2.523155 0.992830 -0.948427 -2.749757 -3.672283 -0.856517 0.000000 0.000000 0.000000 
-3046.175781 1000.236694 1142.796997 4.187897 -3.494179 -1.425526 -1.418725 -0.491656 4.157962 -1.379420 0.036804 -1.015198 -1.384694 -0.123933 0.610862 -0.177257 -0.472002 0.468819 0.000000 0.000000 0.000000 -0.700949 3.207759 -2.066053 -0.560366 3.185835 -1.414796 -0.020137 -1.098498 -1.336585 0.000000 0.000000 0.000000 0.364448 0.551335 -0.869736 0.147185 0.510407 1.002534 -0.025053 0.114243 -0.273769 0.000000 0.000000 0.000000 0.702955 4.368123 3.248721 1.018251 -1.564048 0.339240 1.094943 -3.212354 0.177824 0.000000 0.000000 0.000000 -2.458144 3.103766 1.725403 -2.534374 0.718554 -0.872011 -2.743349 -3.734365 -0.845723 0.000000 0.000000 0.000000 
-3039.436523 1000.543945 1142.629028 4.219793 -3.279627 -1.356714 -1.472649 -0.904594 4.108210 -1.421191 0.087131 -0.999232 -1.429052 -0.224654 0.596494 -0.160827 -0.655775 0.423241 0.000000 0.000000 0.000000 -0.949516 3.518234 -2.267453 -0.583953 3.456863 -1.362464 0.002889 -0.973314 -1.056660 0.000000 0.000000 0.000000 1.040482 0.943262 -0.841190 0.152196 0.781667 1.087179 -0.098812 0.020509 -0.571572 0.000000 0.000000 0.000000 0.698514 4.746388 3.230768 1.048212 -2.004360 0.223659 1.101160 -3.266127 0.175327 0.000000 0.000000 0.000000 -2.433978 3.412665 1.622737 -2.546458 0.385951 -0.788641 -2.733880 -3.783723 -0.834984 0.000000 0.000000 0.000000 
